# xmcd
#
# Track frame offsets: 
#        150
#        14304
#        28232
#        42246
#        57835
#        73468
#        89300
#        106139
#        121327
#        139064
#        152599
#        173109
#
# Disc length: 2517 seconds
#
# Revision: 0
# Processed by: cddbd v1.5.1PL2 Copyright (c) Steve Scherf et al.
# Submitted via: ExactAudioCopy v0.95b4
#
DISCID=9f09d30c
DTITLE=ชุดที่ 5 - ชัวร์ ชะชะช่า  
DYEAR=2003
DGENRE=Country
TTITLE0=ใกล้เข้าไปอีกนิด-ชิดเข้ามาอีกหน่อย
TTITLE1=ดอกฟ้าที่รัก
TTITLE2=ดอกดินที่รัก
TTITLE3=แอ่วสาวกอด
TTITLE4=แอ่วหนุ่มกอด
TTITLE5=สาวอีสานรอรัก
TTITLE6=นักร้องพเนจร
TTITLE7=สาวนาสั่งแฟน
TTITLE8=ม.21
TTITLE9=เพราะคุณคนเดียว
TTITLE10=ฮักสาวหมอลำ
TTITLE11=รอวันสัญญา-ขอผิดสัญญา
EXTD=
EXTT0=
EXTT1=
EXTT2=
EXTT3=
EXTT4=
EXTT5=
EXTT6=
EXTT7=
EXTT8=
EXTT9=
EXTT10=
EXTT11=
PLAYORDER=
